<?xml version="1.0" encoding="UTF-8" standalone="no"?>
<!-- Created with Inkscape (http://www.inkscape.org/) -->

<svg
   version="1.1"
   id="svg2"
   viewBox="0 0 1482.8979 220.00001"
  >
  
  <g
     
     transform="translate(2.2674651e-7,4.0962064e-5)">
    <g
       id="g971">
      <g
         id="g1060"
         transform="matrix(0.13091846,0,0,0.13097735,49.863621,-0.13429384)">
        <path
           id="path977"
           style="fill:currentColor;fill-opacity:1;stroke:none;stroke-width:15.2732;stroke-miterlimit:4;stroke-dasharray:none;stroke-opacity:1"
           d="m 607.20508,631.51562 -94.38281,94.38282 -94.38477,94.38476 1.41016,5.02539 c 3.3095,11.79437 4.17726,27.53661 2.16992,39.37891 -0.98033,5.78343 -4.69416,18.42582 -6.00196,20.43164 -0.4962,0.76109 6.96321,8.55344 35.99805,37.60156 l 36.62305,36.64063 104.80273,-104.80078 c 57.64077,-57.64 104.80078,-105.14568 104.80078,-105.57032 0,-0.42471 -1.32492,-3.8819 -2.94335,-7.68164 -17.99763,-42.25485 -45.33673,-77.41876 -81.45508,-104.76757 z m -319.8457,19.36524 c -0.0298,-0.0298 -0.30654,0.17927 -0.72071,0.50195 v 0.40235 c 0.0906,-0.10629 0.0623,0.0218 0.16211,-0.10547 0.39804,-0.50755 0.59163,-0.7658 0.5586,-0.79883 z m 44,109.61133 c -1.496,0.13472 -0.2713,0.24414 2.7207,0.24414 2.992,0 4.2167,-0.10942 2.7207,-0.24414 -1.496,-0.13472 -3.94541,-0.13472 -5.4414,0 z" />
        <path
           style="fill:currentColor;fill-opacity:1;stroke:none;stroke-width:15.2732;stroke-miterlimit:4;stroke-dasharray:none;stroke-opacity:1"
           d="m 215.4294,918.45414 c -4.911,-15.7342 -8.12338,-30.43206 -10.43287,-47.73414 -1.40773,-10.5463 -1.6171,-47.46208 -0.32851,-57.92 1.23975,-10.0615 3.71719,-23.92992 5.96066,-33.36691 l 1.99694,-8.4 20.29773,20.2903 20.29774,20.29031 -2.17073,5.40627 c -8.9596,22.31411 -8.42182,47.31328 1.49308,69.40659 l 1.7537,3.90778 -17.86428,17.87283 c -9.82535,9.83008 -18.03506,17.87283 -18.24378,17.87283 -0.20872,0 -1.45058,-3.43162 -2.75968,-7.62586 z"
           id="path985" />
        <path
           style="fill:currentColor;fill-opacity:1;stroke:none;stroke-width:15.2732;stroke-miterlimit:4;stroke-dasharray:none;stroke-opacity:1"
           d="m 698.8667,864.94669 -13.09549,-13.1072 14.39437,-14.40909 14.39444,-14.40902 0.49875,6.88928 c 0.81901,11.31257 -1.11066,46.08761 -2.64551,47.67628 -0.24806,0.25677 -6.34406,-5.43136 -13.54656,-12.64025 z"
           id="path983" />
        <path
           style="fill:currentColor;fill-opacity:1;stroke:none;stroke-width:15.2732;stroke-miterlimit:4;stroke-dasharray:none;stroke-opacity:1"
           d="m 450.56001,1096.491 -4.16,-0.2183 23.84367,-23.8086 23.84367,-23.8085 18.55633,18.548 c 10.20598,10.2015 18.55633,18.7382 18.55633,18.9704 0,0.6385 -20.39257,5.4561 -29.12,6.8796 -11.98531,1.9547 -17.67477,2.5694 -30.08,3.2499 -11.27405,0.6184 -12.94877,0.6331 -21.44,0.1875 z m -92.16,-20.5706 c -43.80344,-18.8791 -80.83605,-48.9532 -108.77162,-88.33301 l -3.35726,-4.73261 25.77879,-25.7847 c 25.42119,-25.42701 25.80161,-25.77293 27.42444,-24.93478 2.91999,1.50803 14.2847,4.76492 20.12948,5.76864 7.19379,1.23539 20.74638,1.25145 28.25525,0.0339 8.2287,-1.33466 16.28674,-3.80461 23.54257,-7.21626 l 6.28165,-2.9536 34.87762,34.83616 c 19.1827,19.15987 35.17935,35.3799 35.54813,36.04448 0.58742,1.05856 -4.27486,6.15418 -39.23735,41.11998 -21.94933,21.9515 -40.34073,39.9037 -40.86978,39.8938 -0.52906,-0.01 -4.84992,-1.6936 -9.60192,-3.7417 z"
           id="path981" />
        <path
           style="fill:currentColor;fill-opacity:1;stroke:none;stroke-width:15.2732;stroke-miterlimit:4;stroke-dasharray:none;stroke-opacity:1"
           d="m 563.9545,1032.1145 c -15.19897,-15.202 -27.63449,-27.9274 -27.63449,-28.2787 0,-0.3513 23.18366,-23.82108 51.51923,-52.15503 l 51.51923,-51.51623 25.41562,25.2777 c 13.97863,13.90278 25.5321,25.33485 25.67437,25.40467 0.43988,0.21575 -7.8887,15.67341 -12.4864,23.17447 -19.36301,31.59012 -45.79147,59.02802 -77.00205,79.94302 -3.344,2.2408 -6.82048,4.4604 -7.72551,4.9322 -1.62514,0.8473 -1.98769,0.5156 -29.28,-26.7821 z"
           id="path979" />
        <path
           style="fill:currentColor;fill-opacity:1;stroke:none;stroke-width:15.2732;stroke-miterlimit:4;stroke-dasharray:none;stroke-opacity:1"
           d="m 369.28001,767.94246 c -18.11856,-8.0528 -41.68233,-9.58272 -59.9627,-3.89324 l -3.89938,1.21363 -30.78896,-30.79386 c -16.93393,-16.93664 -30.78896,-31.10797 -30.78896,-31.49177 0,-0.38388 2.19516,-3.83879 4.87813,-7.67757 15.26832,-21.84595 32.7217,-40.41722 52.35373,-55.70709 l 6.99186,-5.4454 44.40903,44.36644 c 24.42497,24.40154 47.0327,47.19437 50.2394,50.65069 l 5.83036,6.28435 -17.22681,17.23565 c -9.47475,9.47968 -17.37282,17.20678 -17.55125,17.17139 -0.17845,-0.0352 -2.19645,-0.89632 -4.48445,-1.91322 z"
           id="path975" />
        <path
           id="path1668"
           style="fill:currentColor;fill-opacity:1;stroke:none;stroke-width:0.084;stroke-miterlimit:4;stroke-dasharray:none;stroke-opacity:1"
           d="m 109.77148,0 c -2.7444,0.00197075 -3.94108,0.09793046 -6.32617,0.50585938 C 89.089197,2.9612318 77.417386,13.854234 73.908203,28.072266 73.15161,31.137725 72.876519,33.508575 72.875,36.958984 c -0.0012,2.697899 0.09884,3.976514 0.494141,6.3125 1.003788,5.931845 3.513953,11.595283 7.30664,16.488282 1.296255,1.672317 2.992965,3.432076 15.021485,15.58789 6.890054,6.96297 12.882274,13.029202 13.316404,13.480469 0.43414,0.451258 0.83858,0.810144 0.89844,0.796875 0.0599,-0.01328 3.9989,-3.985249 8.75391,-8.826172 4.755,-4.840923 10.68452,-10.876388 13.17773,-13.412109 2.49322,-2.535722 4.90114,-5.018538 5.34961,-5.517578 6.46218,-7.190705 9.83846,-16.285668 9.58789,-25.832032 -0.20159,-7.679783 -2.58466,-14.711841 -7.08594,-20.916015 C 137.58651,12.214517 134.54947,9.1760423 131.64062,7.0625 126.76709,3.5214231 121.18447,1.2278478 115.34375,0.3671875 113.24297,0.05762624 112.33918,-0.00184377 109.77148,0 Z m 0.0234,27.361328 c 2.57876,0 4.94268,0.966643 6.75391,2.761719 1.87874,1.861991 2.85937,4.20468 2.85937,6.835937 0,2.631258 -0.98063,4.973947 -2.85937,6.835938 -1.36796,1.355758 -3.20621,2.309795 -5.08008,2.636719 -0.99588,0.173745 -2.56007,0.151206 -3.52148,-0.05078 -2.04732,-0.430125 -3.57861,-1.284822 -5.05274,-2.818359 -1.07757,-1.120991 -1.70639,-2.14121 -2.16992,-3.525391 -0.946482,-2.826324 -0.55317,-5.886918 1.07422,-8.359375 0.47953,-0.72854 1.62329,-1.9269 2.35351,-2.466796 1.62416,-1.200843 3.60356,-1.84961 5.64258,-1.84961 z"
           transform="matrix(7.6383422,0,0,7.6349079,-380.8754,1.0253211)" />
        <path
           style="fill:currentColor;fill-opacity:1;stroke:none;stroke-width:15.2732;stroke-miterlimit:4;stroke-dasharray:none;stroke-opacity:1"
           d="M 442.24001,1298.8205 C 361.74086,1295.0547 290.94835,1274.0844 223.87382,1234.1356 102.09364,1161.6047 20.018049,1034.7174 3.9126599,894.08 1.6082709,873.95731 1.0433997,863.37984 1.0417102,840.32 1.0396718,812.49914 2.3047103,795.09146 6.1577678,769.92 21.135081,672.07533 67.755278,581.76883 139.30744,512 c 5.95645,-5.808 13.79116,-13.12938 17.41045,-16.26973 l 6.58052,-5.70973 71.9508,71.94866 c 39.57294,39.57177 71.9508,72.13025 71.9508,72.35219 0,0.22194 -2.088,1.98344 -4.64,3.91446 -8.44239,6.38809 -18.64598,15.5685 -27.26892,24.53452 -38.78355,40.32653 -63.10415,90.69094 -70.1303,145.22963 -5.46726,42.43808 0.0343,86.66445 15.64394,125.76 13.27624,33.25133 30.83246,60.4633 55.09528,85.397 60.95936,62.645 148.61012,89.6381 234.74714,72.293 48.60767,-9.7879 94.2806,-34.4185 129.93251,-70.0704 41.72301,-41.72302 67.51181,-96.2939 73.76864,-156.0996 1.24122,-11.86432 1.05664,-40.27763 -0.33888,-52.16 -4.26284,-36.29658 -14.7776,-68.47443 -32.73657,-100.18259 -15.32455,-27.05677 -38.8146,-54.23687 -63.11325,-73.0277 -3.65177,-2.82402 -7.59033,-5.90299 -8.75235,-6.84215 l -2.11277,-1.70756 72.20947,-72.17567 72.20954,-72.17568 8.62323,7.48828 c 11.16896,9.69887 30.02515,28.27756 39.96711,39.3788 67.10451,74.92947 106.70553,166.10769 115.8624,266.76427 1.42073,15.61754 1.93357,47.90662 1.01651,64 -3.73222,65.49395 -19.23642,124.19136 -47.95187,181.5413 -59.90765,119.6465 -169.91661,207.5553 -299.76655,239.545 -23.71043,5.8413 -48.86676,9.8922 -73.78431,11.8814 -11.80776,0.9426 -43.72968,1.6671 -53.44,1.2128 z"
           id="path973" />
        <g
           aria-label="UIUC Crime Map"
           transform="scale(1.0002249,0.99977516)"
           id="text3204-5"
           style="font-size:1197.9px;line-height:1.25;fill:currentColor;stroke-width:7.98603">
          <path
             d="m 1046.8075,414.00225 v 560.61721 c 0,94.63414 14.3748,155.72704 47.916,208.43464 51.5097,81.4572 147.3417,131.769 250.3611,131.769 97.0299,0 186.8724,-43.1244 239.58,-113.8005 41.9265,-57.4992 59.895,-123.3837 59.895,-226.40314 V 414.00225 h -164.1123 v 560.61721 c 0,65.88454 -4.7916,93.43624 -21.5622,122.18584 -22.7601,37.1349 -64.6866,59.895 -113.8005,59.895 -47.916,0 -89.8425,-22.7601 -112.6026,-59.895 -16.7706,-28.7496 -21.5622,-56.3013 -21.5622,-122.18584 V 414.00225 Z"
             style="font-weight:bold;font-family:'URW Gothic';-inkscape-font-specification:'URW Gothic Bold'"
             id="path45091" />
          <path
             d="m 1813.4628,1299.2504 h 164.1123 V 414.00225 h -164.1123 z"
             style="font-weight:bold;font-family:'URW Gothic';-inkscape-font-specification:'URW Gothic Bold'"
             id="path45093" />
          <path
             d="m 2148.8733,414.00225 v 560.61721 c 0,94.63414 14.3748,155.72704 47.916,208.43464 51.5097,81.4572 147.3417,131.769 250.3611,131.769 97.0299,0 186.8724,-43.1244 239.58,-113.8005 41.9265,-57.4992 59.895,-123.3837 59.895,-226.40314 V 414.00225 h -164.1123 v 560.61721 c 0,65.88454 -4.7916,93.43624 -21.5622,122.18584 -22.7601,37.1349 -64.6866,59.895 -113.8005,59.895 -47.916,0 -89.8425,-22.7601 -112.6026,-59.895 -16.7706,-28.7496 -21.5622,-56.3013 -21.5622,-122.18584 V 414.00225 Z"
             style="font-weight:bold;font-family:'URW Gothic';-inkscape-font-specification:'URW Gothic Bold'"
             id="path45095" />
          <path
             d="m 3551.6135,1052.483 c -73.0719,75.4677 -134.1648,104.2173 -219.2157,104.2173 -164.1123,0 -297.0792,-136.5606 -297.0792,-301.87084 0,-71.874 27.5517,-148.53961 73.0719,-201.24721 53.9055,-63.4887 130.5711,-97.0299 220.4136,-97.0299 103.0194,0 172.4976,33.5412 232.3926,111.4047 h 183.2787 c -34.7391,-76.6656 -65.8845,-118.5921 -125.7795,-167.706 -81.4572,-65.8845 -185.6745,-101.8215 -293.4855,-101.8215 -250.3611,0 -455.202,204.8409 -455.202,455.20201 0,256.35064 207.2367,461.19154 465.9831,461.19154 182.0808,0 339.0057,-100.6236 408.4839,-262.3401 z"
             style="font-weight:bold;font-family:'URW Gothic';-inkscape-font-specification:'URW Gothic Bold'"
             id="path45097" />
          <path
             d="m 4821.3846,1052.483 c -73.0719,75.4677 -134.1648,104.2173 -219.2157,104.2173 -164.1123,0 -297.0792,-136.5606 -297.0792,-301.87084 0,-71.874 27.5517,-148.53961 73.0719,-201.24721 53.9055,-63.4887 130.5711,-97.0299 220.4136,-97.0299 103.0194,0 172.4976,33.5412 232.3926,111.4047 h 183.2787 c -34.7391,-76.6656 -65.8845,-118.5921 -125.7795,-167.706 -81.4572,-65.8845 -185.6745,-101.8215 -293.4855,-101.8215 -250.3611,0 -455.202,204.8409 -455.202,455.20201 0,256.35064 207.2367,461.19154 465.9831,461.19154 182.0808,0 339.0057,-100.6236 408.4839,-262.3401 z"
             style="font-weight:bold;font-family:'URW Gothic';-inkscape-font-specification:'URW Gothic Bold'"
             id="path45099" />
          <path
             d="m 5102.8897,1299.2504 h 159.3207 V 930.29716 c -3.5937,-98.2278 46.7181,-153.3312 142.5501,-156.9249 V 620.04105 h -11.979 c -68.2803,0 -101.8215,19.1664 -143.748,80.2593 v -64.6866 h -146.1438 z"
             style="font-weight:bold;font-family:'URW Gothic';-inkscape-font-specification:'URW Gothic Bold'"
             id="path45101" />
          <path
             d="M 5482.6233,1299.2504 H 5641.944 V 635.61375 h -159.3207 z m 0,-735.51065 h 159.3207 v -149.7375 h -159.3207 z"
             style="font-weight:bold;font-family:'URW Gothic';-inkscape-font-specification:'URW Gothic Bold'"
             id="path45103" />
          <path
             d="m 5770.1189,1299.2504 h 159.3207 V 972.22366 c 0,-65.8845 5.9895,-110.2068 16.7706,-137.7585 19.1664,-44.3223 58.6971,-68.2803 113.8005,-68.2803 41.9265,0 79.0614,15.5727 100.6236,41.9265 19.1664,25.1559 27.5517,64.6866 27.5517,126.9774 v 364.16164 h 159.3207 V 972.22366 c 0,-74.2698 5.9895,-111.4047 22.7601,-142.5501 20.3643,-40.7286 61.0929,-63.4887 111.4047,-63.4887 39.5307,0 73.0719,14.3748 94.6341,40.7286 21.5622,25.1559 29.9475,62.2908 29.9475,128.1753 v 364.16164 h 159.3207 V 915.92236 c 0,-80.2593 -14.3748,-144.9459 -43.1244,-190.46611 -41.9265,-67.0824 -124.5816,-105.4152 -226.4031,-105.4152 -93.4362,0 -158.1228,31.1454 -212.0283,103.0194 -45.5202,-73.0719 -103.0194,-103.0194 -195.2577,-103.0194 -77.8635,0 -125.7795,21.5622 -172.4976,77.8635 v -62.2908 h -146.1438 z"
             style="font-weight:bold;font-family:'URW Gothic';-inkscape-font-specification:'URW Gothic Bold'"
             id="path45105" />
          <path
             d="m 7553.7904,1038.1082 c 4.7916,-23.958 5.9895,-38.33284 5.9895,-62.29084 0,-204.8409 -144.9459,-355.77631 -342.5994,-355.77631 -195.2577,0 -349.7868,154.52911 -349.7868,349.78681 0,194.05984 156.9249,344.99524 359.37,344.99524 109.0089,0 194.0598,-39.5307 263.538,-119.79 25.1559,-31.1454 41.9265,-58.6971 52.7076,-92.2383 h -173.6955 c -40.7286,47.916 -80.2593,65.8845 -146.1438,65.8845 -94.6341,0 -164.1123,-50.3118 -183.2787,-130.5711 z M 7035.0997,897.95386 c 25.1559,-86.2488 89.8425,-131.769 184.4766,-131.769 98.2278,0 162.9144,46.7181 183.2787,131.769 z"
             style="font-weight:bold;font-family:'URW Gothic';-inkscape-font-specification:'URW Gothic Bold'"
             id="path45107" />
          <path
             d="m 8014.9798,1299.2504 h 164.1123 V 635.61375 l 231.1948,663.63665 h 134.1648 l 231.1947,-663.63665 v 663.63665 h 164.1123 V 414.00225 H 8714.5535 L 8478.5672,1084.8263 8240.1851,414.00225 h -225.2053 z"
             style="font-weight:bold;font-family:'URW Gothic';-inkscape-font-specification:'URW Gothic Bold'"
             id="path45109" />
          <path
             d="m 9748.3405,635.61375 h -146.1438 v 88.6446 c -55.1034,-73.0719 -120.9879,-104.2173 -216.8199,-104.2173 -196.4556,0 -337.8078,147.34171 -337.8078,349.78681 0,200.04934 140.1543,344.99524 334.2141,344.99524 93.4362,0 156.9249,-28.7496 220.4136,-101.8215 v 86.2488 h 146.1438 z m -346.1931,130.57111 c 113.8005,0 195.2577,85.0509 195.2577,206.0388 0,47.91604 -19.1664,103.01944 -47.916,136.56064 -32.3433,39.5307 -83.853,59.895 -144.9459,59.895 -116.1963,0 -196.4556,-79.0614 -196.4556,-195.25774 0,-120.9879 80.2593,-207.2367 194.0598,-207.2367 z"
             style="font-weight:bold;font-family:'URW Gothic';-inkscape-font-specification:'URW Gothic Bold'"
             id="path45111" />
          <path
             d="m 9866.9324,1520.8619 h 159.3206 v -283.9023 c 61.093,53.9055 122.186,77.8635 203.643,77.8635 191.664,0 331.818,-148.5396 331.818,-349.78684 0,-200.0493 -138.956,-344.99521 -329.422,-344.99521 -91.041,0 -167.706,32.3433 -219.216,93.4362 v -77.8635 H 9866.9324 Z M 10210.73,766.18486 c 107.811,0 190.466,87.4467 190.466,202.4451 0,112.60264 -82.655,200.04934 -188.071,200.04934 -112.602,0 -196.455,-86.2488 -196.455,-202.44514 0,-113.8005 83.853,-200.0493 194.06,-200.0493 z"
             style="font-weight:bold;font-family:'URW Gothic';-inkscape-font-specification:'URW Gothic Bold'"
             id="path45113" />
        </g>
      </g>
    </g>
  </g>
</svg>
