<?xml version="1.0" encoding="UTF-8" standalone="no"?>
<!-- Created with Inkscape (http://www.inkscape.org/) -->

<svg
   version="1.1"
   id="svg2"
   width="220"
   height="220"
   viewBox="0 0 220 220.00001"
   sodipodi:docname="websitelogoIcon.svg"
   inkscape:version="1.1 (c4e8f9ed74, 2021-05-24)"
   xmlns:inkscape="http://www.inkscape.org/namespaces/inkscape"
   xmlns:sodipodi="http://sodipodi.sourceforge.net/DTD/sodipodi-0.dtd"
   xmlns="http://www.w3.org/2000/svg"
   xmlns:svg="http://www.w3.org/2000/svg">
  <defs
     id="defs6" />
  <sodipodi:namedview
     id="namedview4"
     pagecolor="#505050"
     bordercolor="#ffffff"
     borderopacity="1"
     inkscape:pageshadow="0"
     inkscape:pageopacity="0"
     inkscape:pagecheckerboard="1"
     showgrid="false"
     inkscape:zoom="1.5130518"
     inkscape:cx="58.491056"
     inkscape:cy="125.24356"
     inkscape:window-width="1500"
     inkscape:window-height="928"
     inkscape:window-x="0"
     inkscape:window-y="0"
     inkscape:window-maximized="1"
     inkscape:current-layer="g971" />
  <g
     inkscape:groupmode="layer"
     inkscape:label="Image"
     id="g8">
    <g
       id="g971">
      <g
         id="g1060"
         transform="matrix(0.13091846,0,0,0.13097735,49.863621,-0.13429384)">
        <path
           id="path977"
           style="fill:#900194;stroke-width:0.64"
           d="m 607.20508,631.51562 -94.38281,94.38282 -94.38477,94.38476 1.41016,5.02539 c 3.3095,11.79437 4.17726,27.53661 2.16992,39.37891 -0.98033,5.78343 -4.69416,18.42582 -6.00196,20.43164 -0.4962,0.76109 6.96321,8.55344 35.99805,37.60156 l 36.62305,36.64063 104.80273,-104.80078 c 57.64077,-57.64 104.80078,-105.14568 104.80078,-105.57032 0,-0.42471 -1.32492,-3.8819 -2.94335,-7.68164 -17.99763,-42.25485 -45.33673,-77.41876 -81.45508,-104.76757 z m -319.8457,19.36524 c -0.0298,-0.0298 -0.30654,0.17927 -0.72071,0.50195 v 0.40235 c 0.0906,-0.10629 0.0623,0.0218 0.16211,-0.10547 0.39804,-0.50755 0.59163,-0.7658 0.5586,-0.79883 z m 44,109.61133 c -1.496,0.13472 -0.2713,0.24414 2.7207,0.24414 2.992,0 4.2167,-0.10942 2.7207,-0.24414 -1.496,-0.13472 -3.94541,-0.13472 -5.4414,0 z" />
        <path
           style="fill:#fdda00;stroke-width:0.64"
           d="m 215.4294,918.45414 c -4.911,-15.7342 -8.12338,-30.43206 -10.43287,-47.73414 -1.40773,-10.5463 -1.6171,-47.46208 -0.32851,-57.92 1.23975,-10.0615 3.71719,-23.92992 5.96066,-33.36691 l 1.99694,-8.4 20.29773,20.2903 20.29774,20.29031 -2.17073,5.40627 c -8.9596,22.31411 -8.42182,47.31328 1.49308,69.40659 l 1.7537,3.90778 -17.86428,17.87283 c -9.82535,9.83008 -18.03506,17.87283 -18.24378,17.87283 -0.20872,0 -1.45058,-3.43162 -2.75968,-7.62586 z"
           id="path985" />
        <path
           style="fill:#38bbe0;stroke-width:0.64"
           d="m 698.8667,864.94669 -13.09549,-13.1072 14.39437,-14.40909 14.39444,-14.40902 0.49875,6.88928 c 0.81901,11.31257 -1.11066,46.08761 -2.64551,47.67628 -0.24806,0.25677 -6.34406,-5.43136 -13.54656,-12.64025 z"
           id="path983" />
        <path
           style="fill:#85d83b;stroke-width:0.64"
           d="m 450.56001,1096.491 -4.16,-0.2183 23.84367,-23.8086 23.84367,-23.8085 18.55633,18.548 c 10.20598,10.2015 18.55633,18.7382 18.55633,18.9704 0,0.6385 -20.39257,5.4561 -29.12,6.8796 -11.98531,1.9547 -17.67477,2.5694 -30.08,3.2499 -11.27405,0.6184 -12.94877,0.6331 -21.44,0.1875 z m -92.16,-20.5706 c -43.80344,-18.8791 -80.83605,-48.9532 -108.77162,-88.33301 l -3.35726,-4.73261 25.77879,-25.7847 c 25.42119,-25.42701 25.80161,-25.77293 27.42444,-24.93478 2.91999,1.50803 14.2847,4.76492 20.12948,5.76864 7.19379,1.23539 20.74638,1.25145 28.25525,0.0339 8.2287,-1.33466 16.28674,-3.80461 23.54257,-7.21626 l 6.28165,-2.9536 34.87762,34.83616 c 19.1827,19.15987 35.17935,35.3799 35.54813,36.04448 0.58742,1.05856 -4.27486,6.15418 -39.23735,41.11998 -21.94933,21.9515 -40.34073,39.9037 -40.86978,39.8938 -0.52906,-0.01 -4.84992,-1.6936 -9.60192,-3.7417 z"
           id="path981"
           sodipodi:nodetypes="scccssssscscssscscsssscc" />
        <path
           style="fill:#5573c2;stroke-width:0.64"
           d="m 563.9545,1032.1145 c -15.19897,-15.202 -27.63449,-27.9274 -27.63449,-28.2787 0,-0.3513 23.18366,-23.82108 51.51923,-52.15503 l 51.51923,-51.51623 25.41562,25.2777 c 13.97863,13.90278 25.5321,25.33485 25.67437,25.40467 0.43988,0.21575 -7.8887,15.67341 -12.4864,23.17447 -19.36301,31.59012 -45.79147,59.02802 -77.00205,79.94302 -3.344,2.2408 -6.82048,4.4604 -7.72551,4.9322 -1.62514,0.8473 -1.98769,0.5156 -29.28,-26.7821 z"
           id="path979"
           sodipodi:nodetypes="ssscssssss" />
        <path
           style="fill:#df0030;stroke-width:0.64"
           d="m 369.28001,767.94246 c -18.11856,-8.0528 -41.68233,-9.58272 -59.9627,-3.89324 l -3.89938,1.21363 -30.78896,-30.79386 c -16.93393,-16.93664 -30.78896,-31.10797 -30.78896,-31.49177 0,-0.38388 2.19516,-3.83879 4.87813,-7.67757 15.26832,-21.84595 32.7217,-40.41722 52.35373,-55.70709 l 6.99186,-5.4454 44.40903,44.36644 c 24.42497,24.40154 47.0327,47.19437 50.2394,50.65069 l 5.83036,6.28435 -17.22681,17.23565 c -9.47475,9.47968 -17.37282,17.20678 -17.55125,17.17139 -0.17845,-0.0352 -2.19645,-0.89632 -4.48445,-1.91322 z"
           id="path975" />
        <path
           style="fill:#2f005b;stroke-width:0.64"
           d="M 442.24001,1298.8205 C 361.74086,1295.0547 290.94835,1274.0844 223.87382,1234.1356 102.09364,1161.6047 20.018049,1034.7174 3.9126599,894.08 1.6082709,873.95731 1.0433997,863.37984 1.0417102,840.32 1.0396718,812.49914 2.3047103,795.09146 6.1577678,769.92 21.135081,672.07533 67.755278,581.76883 139.30744,512 c 5.95645,-5.808 13.79116,-13.12938 17.41045,-16.26973 l 6.58052,-5.70973 71.9508,71.94866 c 39.57294,39.57177 71.9508,72.13025 71.9508,72.35219 0,0.22194 -2.088,1.98344 -4.64,3.91446 -8.44239,6.38809 -18.64598,15.5685 -27.26892,24.53452 -38.78355,40.32653 -63.10415,90.69094 -70.1303,145.22963 -5.46726,42.43808 0.0343,86.66445 15.64394,125.76 13.27624,33.25133 30.83246,60.4633 55.09528,85.397 60.95936,62.645 148.61012,89.6381 234.74714,72.293 48.60767,-9.7879 94.2806,-34.4185 129.93251,-70.0704 41.72301,-41.72302 67.51181,-96.2939 73.76864,-156.0996 1.24122,-11.86432 1.05664,-40.27763 -0.33888,-52.16 -4.26284,-36.29658 -14.7776,-68.47443 -32.73657,-100.18259 -15.32455,-27.05677 -38.8146,-54.23687 -63.11325,-73.0277 -3.65177,-2.82402 -7.59033,-5.90299 -8.75235,-6.84215 l -2.11277,-1.70756 72.20947,-72.17567 72.20954,-72.17568 8.62323,7.48828 c 11.16896,9.69887 30.02515,28.27756 39.96711,39.3788 67.10451,74.92947 106.70553,166.10769 115.8624,266.76427 1.42073,15.61754 1.93357,47.90662 1.01651,64 -3.73222,65.49395 -19.23642,124.19136 -47.95187,181.5413 -59.90765,119.6465 -169.91661,207.5553 -299.76655,239.545 -23.71043,5.8413 -48.86676,9.8922 -73.78431,11.8814 -11.80776,0.9426 -43.72968,1.6671 -53.44,1.2128 z M 451.8059,679.22432 C 448.48983,675.77894 402.71692,629.46413 350.08834,576.3025 258.21039,483.49398 245.24801,470.04799 235.34677,457.28 206.37693,419.92241 187.20808,376.68097 179.5408,331.39188 176.52139,313.55684 175.75703,303.79821 175.76608,283.2 c 0.0116,-26.34356 2.11807,-44.44042 7.89719,-67.84492 C 210.46761,106.80172 299.62309,23.631708 409.28001,4.8851661 c 18.2181,-3.1144997 27.35728,-3.8444861 48.32,-3.8595326 19.61292,-0.014077 26.51351,0.4405629 42.56,2.8040346 44.61338,6.5710619 87.25424,24.0813229 124.48,51.1171189 22.21876,16.136701 45.42272,39.34177 61.53044,61.533213 34.38233,47.3683 52.57235,101.04556 54.11213,159.68 1.91392,72.88561 -23.87124,142.33212 -73.23156,197.23249 -3.4256,3.81013 -21.80985,22.76751 -40.85388,42.12751 -19.044,19.36 -64.34209,65.44 -100.66243,102.4 -36.32033,36.96 -66.41106,67.28294 -66.86828,67.38432 -0.45722,0.10131 -3.54446,-2.63469 -6.86053,-6.08 z M 470.55373,355.5311 c 14.31328,-2.49603 28.3637,-9.78565 38.81262,-20.13674 14.35051,-14.21613 21.83366,-32.10495 21.83366,-52.19436 0,-20.08941 -7.48315,-37.97823 -21.83366,-52.19436 C 495.53157,217.3004 477.47414,209.92 457.77671,209.92 c -15.57474,0 -30.69572,4.95464 -43.1016,14.12296 -5.57767,4.12206 -14.31076,13.2747 -17.97356,18.83704 -12.43051,18.87698 -15.43537,42.2502 -8.20582,63.82893 3.54063,10.56809 8.33437,18.35715 16.56519,26.91581 11.2599,11.70841 22.96867,18.23463 38.60678,21.5186 7.34365,1.54216 19.27913,1.71429 26.88603,0.38776 z"
           id="path973" />
      </g>
    </g>
  </g>
</svg>
